<svg width="15" height="15" xmlns="http://www.w3.org/2000/svg"><path d="M13.5 7a5.99 5.99 0 0 1-2.546 4.907L12 14H3l1.046-2.093A6 6 0 1 1 13.5 7m-1.202.125H8.995a1.5 1.5 0 0 1-.35.844l2.336 2.336a4.78 4.78 0 0 0 1.317-3.18m-1.493 3.356L8.469 8.145A1.5 1.5 0 0 1 8 8.415v3.36a4.8 4.8 0 0 0 2.805-1.294m-4.8-3.356H2.702a4.78 4.78 0 0 0 1.317 3.18L6.355 7.969a1.5 1.5 0 0 1-.35-.844m-1.81 3.356A4.8 4.8 0 0 0 7 11.774v-3.36a1.5 1.5 0 0 1-.469-.269zm8.103-3.606a4.78 4.78 0 0 0-1.317-3.18L8.645 6.031a1.5 1.5 0 0 1 .35.844zM10.805 3.519A4.78 4.78 0 0 0 7.625 2.202v3.303a1.5 1.5 0 0 1 .844.35zm-3.43 1.986V2.202a4.78 4.78 0 0 0-3.18 1.317l2.336 2.336a1.5 1.5 0 0 1 .844-.35m-1.02.526L4.019 3.695a4.78 4.78 0 0 0-1.317 3.18h3.303a1.5 1.5 0 0 1 .35-.844"/></svg>