<svg width="15" height="15" xmlns="http://www.w3.org/2000/svg"><path d="M7.528.895 9 2h1L11.473.896A.33.33 0 0 1 12 1.159V4.5c0 .722-.522 1.184-1 1.573V10l.8 2.4.706.353a.89.89 0 0 1 .494.8C13 13.8 12.8 14 12.553 14H4.25C3.017 14 2 13 2 11.713 2 9.543 2.453 7.93 2.745 6.845c.146-.543.29-.95.393-1.231a4 4 0 0 1 .192-.449c.449-.855 1.744-.21 1.342.668a6 6 0 0 0-.133.317 11 11 0 0 0-.346 1.084c-.246.915-.519 2.287-.635 4.133C3.926 9.307 5.98 7.239 7.635 5.758 7.29 5.432 7.001 5.038 7.001 4.5V1.158a.33.33 0 0 1 .527-.263"/></svg>