<svg version="1.1" xmlns="http://www.w3.org/2000/svg" width="15" height="15"><path d="M1 3C.446 3 0 3.446 0 4v7c0 .554.446 1 1 1h13c.554 0 1-.446 1-1V4A1 1 0 0 0 14 3zm0 1h1.5A.5.5 0 1 1 2 4.5L1.5 5A.5.5 0 1 1 1 5.5zm6.5 0C8.88 4 10 5.567 10 7.5S8.88 11 7.5 11 5 9.433 5 7.5 6.12 4 7.5 4m5 0H14v1.5A.5.5 0 1 1 13.5 5L13 4.5A.5.5 0 1 1 12.5 4m-5 1.5c-.323 0-.534.109-.682.25h1.364C8.034 5.609 7.823 5.5 7.5 5.5M6.625 6c-.045.091-.062.171-.08.25h1.91C8.437 6.171 8.421 6.091 8.375 6zM6.5 6.5v.25h2V6.5zm0 .5v.25h2V7zm0 .5v.25h2V7.5zm0 .5-.25.25h2L8.5 8zM6 8.5s.035.102.102.25h2.273L8 8.5zM1.5 9a.5.5 0 0 1 0 1l.5.5a.5.5 0 1 1 .5.5H1V9.5A.5.5 0 0 1 1.5 9m4.738 0c.046.086.076.159.137.25h2.268C8.709 9.112 8.75 9 8.75 9zM13.5 9a.5.5 0 0 1 .5.5V11h-1.5a.5.5 0 1 1 .5-.5l.5-.5a.5.5 0 0 1 0-1m-6.934.5a2 2 0 0 0 .26.25h1.42A1.3 1.3 0 0 0 8.5 9.5z"/></svg>