<svg width="15" height="15" xmlns="http://www.w3.org/2000/svg"><path d="M3.66 7H2.03A5.4 5.4 0 0 1 3.04 4.26c.35.864.56 1.81.62 2.74m1.075 0H7V2C5.79 2.106 4.725 2.613 3.835 3.44a9.4 9.4 0 0 1 .9 3.56M8 2v5h2.265a9.4 9.4 0 0 1 .9-3.56C10.275 2.613 9.21 2.106 8 2m3.96 2.26A8.9 8.9 0 0 0 11.34 7h1.63A5.4 5.4 0 0 0 11.96 4.26M14 8.5a.5.5 0 0 1-.5.498h-1.78l-.76 1.52v2.38a.39.39 0 0 1-.24.35.6.6 0 0 1-.14.02.33.33 0 0 1-.26-.11L9.3 12.148l-1.59 1.06a.4.4 0 0 1-.42 0L5.7 12.148l-1.02 1.01a.37.37 0 0 1-.4.09.39.39 0 0 1-.24-.35v-2.38l-.76-1.52H1.5A.5.5 0 1 1 1.5 8h12a.5.5 0 0 1 .5.5m-7.14.498H4.12l.63 1.27a.3.3 0 0 1 .04.16v1.56l.56-.55zm1.98 2.55L7.5 9.388l-1.34 2.16 1.34.9zm2.05-2.55H8.14l1.51 2.44.56.55v-1.56a.3.3 0 0 1 .04-.16z"/></svg>