<svg xmlns="http://www.w3.org/2000/svg" width="15" height="15"><path d="M9.32 7.655A4.02 4.02 0 0 0 12 4H3a4.01 4.01 0 0 0 2.63 3.631l-.707 1.413A2.494 2.494 0 1 0 6.49 13h4.223l.335.717a.5.5 0 0 0 .905-.428zM4.5 12.75a1.25 1.25 0 1 1 0-2.5 1.25 1.25 0 0 1 0 2.5M6.95 12A2.49 2.49 0 0 0 5.859 9.406L6.6 7.923a4.9 4.9 0 0 0 1.745 0l1.9 4.07zM4.75 1a.25.25 0 0 0-.25.25c0 .5-.5.5-.5.5-1 0-1 1-1 1a.25.25 0 1 0 .5 0c0-.5.5-.5.5-.5 1 0 1-1 1-1A.25.25 0 0 0 4.75 1m2 0a.25.25 0 0 0-.25.25c0 .5-.5.5-.5.5-1 0-1 1-1 1a.25.25 0 1 0 .5 0c0-.5.5-.5.5-.5 1 0 1-1 1-1A.25.25 0 0 0 6.75 1m2 0a.25.25 0 0 0-.25.25c0 .5-.5.5-.5.5-1 0-1 1-1 1a.25.25 0 1 0 .5 0c0-.5.5-.5.5-.5 1 0 1-1 1-1A.25.25 0 0 0 8.75 1m2 0a.25.25 0 0 0-.25.25c0 .5-.5.5-.5.5-1 0-1 1-1 1a.25.25 0 1 0 .5 0c0-.5.5-.5.5-.5 1 0 1-1 1-1A.25.25 0 0 0 10.75 1m2 0a.25.25 0 0 0-.25.25c0 .5-.5.5-.5.5-1 0-1 1-1 1a.25.25 0 1 0 .5 0c0-.5.5-.5.5-.5 1 0 1-1 1-1A.25.25 0 0 0 12.75 1"/></svg>