<svg width="15" height="15" xmlns="http://www.w3.org/2000/svg"><path d="M10.922 3.166c0 1.006-.335 1.857-.693 2.77-.414 1.052-.86 2.185-.86 3.73 0 2.166.687 4.333 1.409 4.333h1.444c.723 0 1.409-2.166 1.409-4.333 0-1.545-.446-2.678-.86-3.73-.358-.912-.693-1.764-.693-2.77 0-.722.144-.723.144-1.445A.743.743 0 0 0 11.5.999a.743.743 0 0 0-.722.722c0 .723.144.723.144 1.445m-2.552 6.5c0-1.234.254-2.236.55-3.091a4.5 4.5 0 1 0-.17 6.038A11.5 11.5 0 0 1 8.37 9.666M5.24 7.12A.62.62 0 1 1 4 7.12a.62.62 0 0 1 1.24 0m-1 2A.62.62 0 1 1 3 9.12a.62.62 0 0 1 1.24 0m2 0A.62.62 0 1 1 5 9.12a.62.62 0 0 1 1.24 0"/></svg>