<svg height="15" width="15" xmlns="http://www.w3.org/2000/svg"><path d="M14 4V2.49A.5.5 0 0 0 13.5 2a.51.51 0 0 0-.5.55V5a1 1 0 0 0 1 1v5.5a.5.5 0 0 1-1 0v-2A1.5 1.5 0 0 0 11.5 8H10V2A1 1 0 0 0 9 1H3A1 1 0 0 0 2 2v11a1 1 0 0 0 1 1h6a1 1 0 0 0 1-1V9h1.5a.5.5 0 0 1 .5.5v2a1.5 1.5 0 0 0 3 0V5A1 1 0 0 0 14 4M8.2 7.4l-2.6 3.467-.017-.007C5.537 10.938 5.467 11 5.37 11a.267.267 0 0 1-.267-.267c0-.028.021-.047.03-.072l-.018-.008L5.89 8.33A.25.25 0 0 0 5.653 8H4a.25.25 0 0 1-.2-.4L6.4 4.134l.017.007C6.463 4.062 6.533 4 6.63 4c.148 0 .267.12.267.267 0 .028-.021.046-.03.072l.018.008L6.11 6.67A.25.25 0 0 0 6.347 7H8a.25.25 0 0 1 .2.4"/></svg>