<svg width="15" height="15" xmlns="http://www.w3.org/2000/svg"><path d="M12.637 4h-1.639V2.36A.36.36 0 0 0 10.638 2h-.279A.36.36 0 0 0 10 2.36V4H8.36A.36.36 0 0 0 8 4.36v5.638H4.361A.363.363 0 0 0 4 10.361v2.275c0 .2.163.362.363.362h8.275a.36.36 0 0 0 .36-.361V4.36A.36.36 0 0 0 12.638 4m-6.638 7.998h-1v-1h1zm2 0h-1v-1h1zm2 0h-1v-1h1zm0-2h-1v-1h1zm0-2h-1v-1h1zm0-2h-1v-1h1zm2 6h-1v-1h1zm0-2h-1v-1h1zm0-2h-1v-1h1zm0-2h-1v-1h1zm-5-3.637A.36.36 0 0 0 6.638 2H4.36A.36.36 0 0 0 4 2.36V4H2.36A.36.36 0 0 0 2 4.36v8.287a.35.35 0 0 0 .35.35H3V9h3.999zM4 7.998H3v-1h1zm0-2H3v-1h1zm2 2H5v-1h1zm0-2H5v-1h1zm0-2H5V3h1v1z"/></svg>