<svg xmlns="http://www.w3.org/2000/svg" width="15" height="15"><path d="M12.5 3h-4V2a1 1 0 0 0-2 0v1h-4a1 1 0 0 0 0 2h.67a10.8 10.8 0 0 0 1.98 3.81c.333.432.66.825.979 1.194A14.4 14.4 0 0 1 3.52 12.121a1 1 0 1 0 .955 1.758A15.7 15.7 0 0 0 7.5 11.461a15.7 15.7 0 0 0 3.024 2.418 1 1 0 1 0 .955-1.758A14.4 14.4 0 0 1 8.872 10.004 28 28 0 0 0 9.85 8.811a10.8 10.8 0 0 0 1.98-3.812h.67a1 1 0 0 0 0-2M8.267 7.587A25 25 0 0 1 7.5 8.525a25 25 0 0 1-.767-.937A9.6 9.6 0 0 1 5.268 4.999h4.464A9.6 9.6 0 0 1 8.267 7.588"/></svg>