<svg xmlns="http://www.w3.org/2000/svg" width="15" height="15"><path d="m11.855 6.434-.414-.282a4.76 4.76 0 0 0 .282-4.878l-.084-.153.436-.246.09.167a5.26 5.26 0 0 1-.31 5.392m1.152 7.131V14h-11v-.435h2.488L6.044 6.4a.5.5 0 0 1 .489-.394h.725V4.6A1.14 1.14 0 0 1 6.376 3.5a1.157 1.157 0 1 1 2.313 0 1.14 1.14 0 0 1-.93 1.111v1.395h.721a.5.5 0 0 1 .49.394l1.547 7.165ZM8.454 8.751H6.56l-.323 1.493h2.541Zm-2.326 1.993-.323 1.495h3.403l-.323-1.495Zm.808-3.738-.27 1.245h1.68L8.077 7.006Zm-1.418 6.56h3.977l-.179-.827h-3.62ZM5.21 5.013a2.75 2.75 0 0 1 .016-3.052l-.414-.28A3.25 3.25 0 0 0 4.793 5.29ZM10.757 3.5a3.24 3.24 0 0 0-.534-1.786l-.418.275a2.75 2.75 0 0 1-.018 3.05l.414.278A3.23 3.23 0 0 0 10.757 3.5M3.534 6.118A4.76 4.76 0 0 1 3.381 1.13L2.948.88a5.26 5.26 0 0 0 .17 5.514Z"/></svg>