<svg xmlns="http://www.w3.org/2000/svg" width="15" height="15"><path d="M13 4A1 1 0 0 0 12 3a1 1 0 0 0-2 0v2.067A3.48 3.48 0 0 0 4.358 9H2a1 1 0 0 0 0 2 1 1 0 0 0 1 1 1 1 0 0 0 2 0V9.933A3.48 3.48 0 0 0 10.642 6H13a1 1 0 0 0 0-2M7.5 9.993A2.484 2.484 0 0 1 6.318 5.318a1.1 1.1 0 0 1 .546.307 2.12 2.12 0 0 1 .386 1.386l.001.956a2.58 2.58 0 0 0 .509 1.735 1.6 1.6 0 0 0 .26.233 2.5 2.5 0 0 1-.52.056M8.681 9.68a1.1 1.1 0 0 1-.545-.307A2.12 2.12 0 0 1 7.75 7.988l-.001-.956A2.58 2.58 0 0 0 7.24 5.297a1.6 1.6 0 0 0-.26-.233A2.484 2.484 0 0 1 8.682 9.68"/></svg>