<svg version="1.1" xmlns="http://www.w3.org/2000/svg" width="15" height="15"><path d="M8 1.5a1.5 1.5 0 1 1-3 0 1.5 1.5 0 0 1 3 0m2.88 5.68-2-2A.5.5 0 0 0 8.48 5H3.75A.74.74 0 0 0 3 5.64l-1 7.7a.5.5 0 0 0 0 .14.5.5 0 0 0 .5.5.49.49 0 0 0 .5-.34L4.2 9.75l.26-.83.4.44L6 10.6v2.9a.5.5 0 0 0 1 0v-3a.5.5 0 0 0-.08-.22L5.48 8.5l1-2.5h1.71l2 1.84a.5.5 0 0 0 .37.17A.5.5 0 0 0 11 7.5a.5.5 0 0 0-.12-.32M14 11.27a.75.75 0 1 0 0 1.5.75.75 0 0 0 0-1.5M10.76 9.74V9a.25.25 0 1 0-.5 0v.74a.49.49 0 0 0-.25.42v3.34a.5.5 0 0 0 1 0v-3.34a.49.49 0 0 0-.25-.42"/></svg>
