<svg version="1.1" xmlns="http://www.w3.org/2000/svg" width="15" height="15"><path d="M13.94 14.68a.5.5 0 0 1-.47.32.5.5 0 0 1-.18 0L7.5 12.56 1.7 15a.5.5 0 0 1-.648-.284q0-.003-.002-.006A.5.5 0 0 1 1.34 14l4.85-2L1.34 10a.5.5 0 1 1 .36-.93l5.8 2.41 5.8-2.41a.5.5 0 1 1 .36.93L8.8 12l4.85 2a.5.5 0 0 1 .29.68M12 4.23v.45a1 1 0 0 1-.2.59A18 18 0 0 1 10 7v1.16a.5.5 0 0 1-.32.47L7.52 9.5h-.07L5.28 8.63A.5.5 0 0 1 5 8.16V7A17.6 17.6 0 0 1 3.18 5.27 1 1 0 0 1 3 4.68v-.45A4.6 4.6 0 0 1 7.11 0h.75A4.59 4.59 0 0 1 12 4.23M6 4A1 1 0 1 0 4 4a1 1 0 0 0 2 0m1 3A.5.5 0 0 0 6 7v.5a.5.5 0 0 0 1 0zm2 0A.5.5 0 0 0 8 7v.5a.5.5 0 0 0 1 0zm2-3A1 1 0 1 0 9 4a1 1 0 0 0 2 0"/></svg>