<svg xmlns="http://www.w3.org/2000/svg" version="1.1" width="15" height="15"><path d="M10.3 1.22c-.386 0-.7-.02-.8.78l-.4 2.521L11.5 6.5h2c1.4 0 1.5-.959 1.5-.959L13.1 3.322C12.4 2.622 11.7 2.5 11 2.5V2s.067-.78-.7-.78M4.75 1.5S3.8 1.52 3.2 1.72 2 2.622 2 3.622v3.9C2 9.221 1.3 9.5 1 9.5c0 0-1 .021-1 1.021v2.2s0 .8.8.8H2v-.699c0-.4-.2-.6-.5-.7v-1.1c1 0 1.1-.201 1.5-.301l.55 2.197c.1.3.2.5.5.6h1L6 13.5v-.8C6 12.022 5 12 5 12V9.5h3.5l.7 2.621c.4 1.4 1.3 1.379 1.3 1.379H12v-.8c0-.713-1-.7-1-.7l.1-4.078L8 5.5H3.5v-2c0-.4.276-.495.5-.5.494-.012.75 0 .75 0a.75.75 0 0 0 0-1.5m7 2.5a.25.25 0 1 1 0 .5.25.25 0 0 1 0-.5"/></svg>