<svg width="15" height="15" xmlns="http://www.w3.org/2000/svg"><path d="M1 2.75A.75.75 0 0 1 1.75 2h1.114q.137 0 .263.048l3.386 1.27A.75.75 0 0 1 7 4.02v5.96a.75.75 0 0 1-.487.702L3 12v.25A.75.75 0 0 1 2.25 13h-.5A.75.75 0 0 1 1 12.25zm3 5.736v-4.87a.25.25 0 0 0-.162-.234l-.5-.187A.25.25 0 0 0 3 3.429v5.224a.25.25 0 0 0 .33.237l.5-.166A.25.25 0 0 0 4 8.486M5 4.18v3.807a.25.25 0 0 0 .33.238l.5-.167A.25.25 0 0 0 6 7.82V4.366a.25.25 0 0 0-.162-.234l-.5-.187A.25.25 0 0 0 5 4.179Zm9-1.43A.75.75 0 0 0 13.25 2h-1.114a.8.8 0 0 0-.263.048l-3.386 1.27A.75.75 0 0 0 8 4.02v5.96a.75.75 0 0 0 .487.702L12 12v.25a.75.75 0 0 0 .75.75h.5a.75.75 0 0 0 .75-.75zm-2.83 5.974A.25.25 0 0 1 11 8.486v-4.87a.25.25 0 0 1 .162-.234l.5-.187A.25.25 0 0 1 12 3.429v5.224a.25.25 0 0 1-.33.237zM10 4.179v3.807a.25.25 0 0 1-.33.238l-.5-.167A.25.25 0 0 1 9 7.82V4.366a.25.25 0 0 1 .162-.234l.5-.187A.25.25 0 0 1 10 4.179"/></svg>