<svg width="15" height="15" xmlns="http://www.w3.org/2000/svg"><path d="M10.5 1.002a3 3 0 0 0-3 2.25 3 3 0 0 0-3-2.25C2.768.947 2.235 2.797 2.818 4H1.5A.5.5 0 0 0 1 4.5v1a.5.5 0 0 0 .5.5h12a.5.5 0 0 0 .5-.5v-1A.5.5 0 0 0 13.5 4h-1.306C12.8 2.815 12.292 1.001 10.54 1.001q-.02 0-.04 0M10.683 4H8.5a2 2 0 0 1 2-1.998c1.175 0 1.383 1.872.183 1.998M6.5 4H4.292C3.257 3.883 3.196 2.106 4.332 2.002a1 1 0 0 1 .168 0A2 2 0 0 1 6.5 4M2 7.001v4.5a1.5 1.5 0 0 0 1.5 1.5h3v-6zm6.5 0v6h3a1.5 1.5 0 0 0 1.5-1.5v-4.5z"/></svg>