<svg version="1.1" xmlns="http://www.w3.org/2000/svg" width="15" height="15"><path d="M13.792 3.262s-1.676 1.675-2.116 2.12a.3.3 0 0 1-.282.097c-.149-.023-.298-.038-.447-.056q-.609-.072-1.229-.146c-.069-.592-.14-1.172-.2-1.753-.006-.055.033-.13.074-.172a642 642 0 0 1 2.134-2.136c-.45-.213-1.224-.297-1.8-.203a3.545 3.545 0 0 0-2.82 4.625c.037.115.013.182-.069.264Q4.266 8.668 1.498 11.437a3 3 0 0 0-.178.192 1.457 1.457 0 0 0 .298 2.102c.604.42 1.365.344 1.905-.195a4481 4481 0 0 0 5.556-5.56c.092-.092.165-.123.299-.078a3.4 3.4 0 0 0 1.888.089 3.544 3.544 0 0 0 2.655-4.304c-.031-.13-.078-.259-.13-.421"/></svg>