<svg xmlns="http://www.w3.org/2000/svg" width="15" height="15"><path d="M6 1a1 1 0 1 1 1 1A1 1 0 0 1 6 1m2 2.5a1 1 0 0 0 0-.058A.47.47 0 0 0 7.5 3h-1a1 1 0 0 0-.058 0A.47.47 0 0 0 6 3.5V7h2Zm6.85 3.644L12.8 4.8l.085-.509a1 1 0 0 0 .008-.063.25.25 0 0 0-.25-.25.35.35 0 0 0-.158.056L9 7H8l1 1v1.5a.5.5 0 0 1-1 0v-1L6 7H4a1.5 1.5 0 0 0-1.243.661A1.47 1.47 0 0 0 1.563 7H1.5A1.45 1.45 0 0 0 0 8.4v.086A3.8 3.8 0 0 0 .559 10.4a.28.28 0 0 0 .191.1A.25.25 0 0 0 1 10.25V9S.98 8.076 1.753 8c.5-.048.747.253.747.5V11L2 13v1.75a.25.25 0 0 0 .25.25.254.254 0 0 0 .25-.234V13L4 11v1l.5 2.8a.255.255 0 0 0 .246.2A.25.25 0 0 0 5 14.754L4.855 12.3 5.5 11H8v1l.508 2.813A.26.26 0 0 0 8.75 15 .25.25 0 0 0 9 14.75V12l.367-1a1.16 1.16 0 0 0 .543-.6l2.161-3.767a.86.86 0 0 0 1.023.4l1.066.818a.6.6 0 0 0 .35.135.49.49 0 0 0 .475-.4.55.55 0 0 0-.135-.442"/></svg>