<svg width="15" height="15" xmlns="http://www.w3.org/2000/svg"><path d="M6.682 5.76c-.504-.725-.78-1.122-.63-2.377C6.193 2.227 6.732 1.768 7.25 1.324 7.654.98 8.047.644 8.231 0c.301.722-.036 1.47-.349 2.164C7.571 2.855 7.284 3.494 7.671 4c.971 1.271 1.963 2.88.971 4.586-.214.393-.539.681-.861.968C7.358 9.929 6.939 10.3 6.777 10.9 6.508 10.224 6.785 9.536 7.06 8.85c.306-.76.61-1.516.173-2.251-.203-.34-.39-.607-.552-.84m3.371-1.175a2.64 2.64 0 0 1 .368-1.808c.367-.45.701-.643.992-.81.344-.199.627-.362.83-.877.288.684-.001 1.188-.305 1.718-.119.207-.24.418-.33.645-.19.61.102.893.467 1.247.359.346.787.76.9 1.616A2.37 2.37 0 0 1 12.601 8c-.356.436-.68.655-.965.846-.356.24-.648.437-.856.965-.292-.688.031-1.259.353-1.828a5.4 5.4 0 0 0 .335-.657c.072-.558-.234-.867-.582-1.218-.357-.36-.757-.762-.834-1.523m-8.018 0c-.098-.632.005-1.3.368-1.808.376-.528.73-.717 1.035-.881.323-.173.595-.319.786-.806C4.513 1.773 4.21 2.298 3.9 2.84c-.122.212-.246.426-.336.654-.152.385.13 1.015.5 1.243 1.002.8 1.228 2.286.548 3.353-.366.448-.704.648-1 .823-.352.209-.644.382-.848.898-.278-.656.008-1.18.3-1.714a4.3 4.3 0 0 0 .345-.737c.179-.556-.135-.884-.51-1.276-.35-.365-.752-.786-.863-1.499M13 9c.7 2.616-3.474 3-5.5 3S1.3 11.516 2 9c-.633.316-1 .96-1 1.5 0 1.519 2.91 2.9 6.5 2.9S14 12.019 14 10.5C14 9.96 13.633 9.316 13 9"/></svg>