<svg height="15" width="15" xmlns="http://www.w3.org/2000/svg"><path d="M8.911 2.854A.25.25 0 0 1 9 3.044V6.75A.25.25 0 0 1 8.75 7h-2.5A.25.25 0 0 1 6 6.75V5H5v1.75A.25.25 0 0 1 4.75 7h-2.5A.25.25 0 0 1 2 6.75v-3.7a.25.25 0 0 1 .089-.19L5.343.132a.245.245 0 0 1 .315 0zM7.752 8.5a.25.25 0 0 0-.138.042L5 10.5H4v-2a.5.5 0 1 0-1 0v2H2v-2a.5.5 0 1 0-1 0v4.25a.25.25 0 0 0 .25.25h6.5A.25.25 0 0 0 8 12.75v-4A.25.25 0 0 0 7.752 8.5M14 5.245v6.5a.253.253 0 0 1-.253.253h-3.494A.253.253 0 0 1 10 11.747V5.25a.25.25 0 0 1 .154-.231A.3.3 0 0 1 10.25 5H11v-.751A.25.25 0 0 1 11.249 4h1.5A.253.253 0 0 1 13 4.253V5h.755A.245.245 0 0 1 14 5.245M13 10h-2v1h2zm0-2h-2v1h2zm0-2h-2v1h2z"/></svg>