<svg version="1.1" xmlns="http://www.w3.org/2000/svg" width="15" height="15"><path d="M9.5 7.4c0 1.1-.9 2-2 2s-2-.9-2-2 .9-2 2-2 2 .9 2 2m4.5.1c0 .3-.2.5-.5.5h-1.6c-.1.9-.311 1.582-.911 2.282l1.064 1.064c.2.2.196.504-.004.704a.48.48 0 0 1-.704.004L10.3 11c-.6.5-1.4.8-2.3.9v1.6c0 .3-.2.5-.5.5S7 13.8 7 13.5v-1.6C6.1 11.8 5.3 11.5 4.7 11l-1.1 1.1c-.207.207-.48.213-.696-.004a.483.483 0 0 1-.007-.7L4 10.3C3.5 9.7 3.1 8.9 3 8H1.5C1.2 8 1 7.8 1 7.5S1.2 7 1.5 7H3c.1-.9.4-1.7 1-2.4l-1-1c-.2-.2-.2-.5 0-.7s.5-.2.7 0l1 1C5.3 3.4 6.1 3.1 7 3V1.5C7 1.2 7.2 1 7.5 1s.5.2.5.5V3c.9.1 1.7.5 2.3 1l1.1-1.1c.2-.2.5-.2.7 0s.2.5 0 .7L11 4.7c.5.7.8 1.4.9 2.3h1.6c.3 0 .5.2.5.5m-2.9-.1c0-2-1.6-3.6-3.6-3.6S3.8 5.5 3.8 7.4 5.4 11 7.4 11s3.7-1.6 3.7-3.6"/></svg>