<svg xmlns="http://www.w3.org/2000/svg" width="15" height="15"><path d="M13.91 3.41 13.5 3l.2-.28c.02-.03.04-.05.06-.08A.97.97 0 0 0 14 1.99a1 1 0 0 0-1.62-.77c-.03.02-.06.05-.09.07L12 1.5l-.386-.386a.354.354 0 0 0-.525.475l.417.417-.5.5-.392-.392a.354.354 0 0 0-.525.475L10.5 3l-.5.5-.381-.381a.354.354 0 1 0-.528.472l.028.028L9.5 4 9 4.5l-.395-.395a.354.354 0 0 0-.517.483L8.5 5 8 5.5l-.365-.365a.354.354 0 0 0-.556.439C7.1 5.6 7.508 6 7.508 6L7 6.5l-.394-.392a.39.39 0 0 0-.5-.028.384.384 0 0 0-.028.5L6.1 6.6l.4.4L6 7.5l-.4-.4a.37.37 0 0 0-.5 0l1.148 1.144L12.09 2.41 12.5 2h.5v.5l-.41.41L6.751 8.749 7.9 9.9a.355.355 0 0 0 0-.5l-.008-.009L7.5 9 8 8.5l.384.384a.354.354 0 0 0 .528-.472L8.5 8 9 7.5l.38.38a.354.354 0 0 0 .528-.472l-.02-.02L9.5 7l.5-.5.377.377A.35.35 0 0 0 10.64 7a.347.347 0 0 0 .252-.6L10.5 6l.5-.5.38.38a.354.354 0 0 0 .528-.472L11.88 5.38 11.5 5l.5-.5.381.381a.354.354 0 0 0 .528-.472l-.025-.025L12.5 4l.5-.5.382.382a.354.354 0 0 0 .528-.472M4.39 7.916C3.893 7.419 3.641 7 3 7H1.5A.5.5 0 0 0 1 7.5v3a2.2 2.2 0 0 0 .5 1.5l.815.811A2.25 2.25 0 0 0 5.493 13L7.5 11ZM3.5 10l-1.238 1.238A1.3 1.3 0 0 1 2 10.5V8h1a.55.55 0 0 1 .335.194.46.46 0 0 1 .165.418Z"/></svg>