<svg width="15" height="15" xmlns="http://www.w3.org/2000/svg"><path d="M5.117 2.818C5.77 2.266 6.652 2 7.5 2s1.73.266 2.383.818C10.508 3.346 11 4.2 11 5.568c0 .372-.154.956-.49 1.723-.324.743-.775 1.56-1.267 2.367A48 48 0 0 1 7.482 12.31 40 40 0 0 1 5.719 9.623C5.234 8.809 4.793 7.987 4.476 7.248 4.147 6.482 4 5.912 4 5.568 4 4.2 4.492 3.346 5.117 2.818m2.99 10.337C9.46 11.263 12 7.542 12 5.568 12 2.288 9.577 1 7.5 1S3 2.288 3 5.568c0 1.881 2.475 5.69 3.868 7.6A23 23 0 0 0 7.5 14q.084-.119.197-.273a130 130 0 0 0 .41-.572"/></svg>