<svg xmlns="http://www.w3.org/2000/svg" width="15" height="15"><path d="M8.753 6.278a.5.5 0 0 1-.51 0A4.1 4.1 0 0 1 6.5 3.5 2.8 2.8 0 0 0 5.91 1.994l-.019-.027a.26.26 0 0 1-.056-.144.237.237 0 0 1 .25-.25.3.3 0 0 1 .057.011A3.5 3.5 0 0 1 7.5 2.5L8.28.94a.246.246 0 0 1 .44 0L9.5 2.5a3.4 3.4 0 0 1 1.339-.907.3.3 0 0 1 .1-.021c.175.009.212.119.221.249a.4.4 0 0 1-.043.141A5.2 5.2 0 0 0 10.5 3.5 4.11 4.11 0 0 1 8.753 6.278M5 8h1.289a.25.25 0 0 0 .25-.25A.24.24 0 0 0 6.478 7.6L4.7 5.235a.255.255 0 0 0-.391 0L2.518 7.589a.27.27 0 0 0-.062.161.25.25 0 0 0 .25.25H4l-2.665 2.6a.27.27 0 0 0-.058.152A.25.25 0 0 0 1.529 11H3l-1.565 1.565a.255.255 0 0 0 .18.435H4v1h1v-1h2.385a.255.255 0 0 0 .18-.435L6 11h1.471a.25.25 0 0 0 .25-.25.23.23 0 0 0-.058-.149Zm9.345 3.748A.25.25 0 0 1 14.093 12H8.908a.252.252 0 0 1-.226-.365L11.27 6.451a.252.252 0 0 1 .451 0l2.6 5.184a.25.25 0 0 1 .024.113M12.75 10 11.5 7.5 10.25 10Z"/></svg>