<svg xmlns="http://www.w3.org/2000/svg" width="15" height="15"><path d="M9.428 10.429a.27.27 0 0 1-.074-.18A.25.25 0 0 1 9.6 10h1.447a.25.25 0 0 0 .25-.25.26.26 0 0 0-.079-.179L9.07 7.419a.3.3 0 0 1-.063-.17A.25.25 0 0 1 9.257 7H10.4a.25.25 0 0 0 .25-.251.25.25 0 0 0-.077-.178L8.432 4.434 8.418 4.42a.26.26 0 0 1-.066-.17A.25.25 0 0 1 8.6 4h.866a.25.25 0 0 0 .25-.25.25.25 0 0 0-.068-.164h.006L7.7 1.238a.3.3 0 0 0-.042-.044A.25.25 0 0 0 7.5 1.139a.25.25 0 0 0-.158.055A.3.3 0 0 0 7.3 1.238L5.352 3.586a.25.25 0 0 0-.068.164.25.25 0 0 0 .25.25H6.4a.241.241 0 0 1 .184.42l-.014.014L4.431 6.571a.25.25 0 0 0-.077.178A.25.25 0 0 0 4.6 7h1.145a.25.25 0 0 1 .25.249.3.3 0 0 1-.063.17l-2.15 2.152A.26.26 0 0 0 3.7 9.75a.25.25 0 0 0 .25.25H5.4a.25.25 0 0 1 .248.249.27.27 0 0 1-.074.18l-2.14 2.132-.009.009a.25.25 0 0 0 0 .351.26.26 0 0 0 .18.079H7v1l1-.008V13h3.391a.263.263 0 0 0 .26-.254.25.25 0 0 0-.071-.177Z"/></svg>