<svg version="1.1" xmlns="http://www.w3.org/2000/svg" width="15" height="15"><path d="M14 5.75A1.75 1.75 0 0 0 13 4.14 1.24 1.24 0 0 0 11.75 3a1.2 1.2 0 0 0-.29.06 1.2 1.2 0 0 0-2-.78 1.25 1.25 0 1 0-2.5 0S7 2.3 7 2.33a1.22 1.22 0 0 0-2 .74A1.5 1.5 0 0 0 4.51 3a1.5 1.5 0 0 0-1.4 2.07 1.49 1.49 0 0 0 0 2.87A1.49 1.49 0 0 0 6 7.71 1.2 1.2 0 0 0 6.65 8v5L5 14h5L8.4 13v-2a6.8 6.8 0 0 1 2.77-2A1.49 1.49 0 0 0 13 7.52a2 2 0 0 0 0-.16 1.75 1.75 0 0 0 1-1.61m-5.6 4.51V6.82a1.53 1.53 0 0 0 1.33.78h.28a1.49 1.49 0 0 0 .57 1.12A7.3 7.3 0 0 0 8.4 10.26"/></svg>