<svg height="15" width="15" xmlns="http://www.w3.org/2000/svg"><path d="M3 1.15a1.5 1.5 0 1 1 2.903.757A1.5 1.5 0 0 1 3 1.15m11 11.17a1 1 0 0 1-.796 1.17q-.002 0-.004 0A1 1 0 0 1 12.13 13L10.45 9.63 9 9.92 8.78 10h-.06v2.15L9.34 12h.14a.52.52 0 0 1 .19 1l-5 1a.5.5 0 0 1-.17 0 .52.52 0 0 1-.2-1l4.15-.83V10l-3.22.58A1 1 0 0 1 4.02 9.9H4L3 5.83A1 1 0 0 1 3 5.4a1 1 0 0 1 .8-.75l4.7-.52V0h.22v4.1h.06L9 4.08 9.4 4h.21a.5.5 0 0 1 .37.6A.49.49 0 0 1 9.49 5L9 5.08h-.28v2.86h.06L9 7.88l1.81-.36a1 1 0 0 1 1 .6l2 3.94a1 1 0 0 1 .19.26M8.5 5.13 6 5.4l.74 2.94L8.5 8z"/></svg>