<svg xmlns="http://www.w3.org/2000/svg" width="15" height="15"><path d="M10 1a1 1 0 1 0 0 2 1 1 0 0 0 0-2M5.5 3c-.25 0-1 0-.5.75L6.25 6H4.5c-.277.003-.517.1-.75.25C2.944 5.121 2.242 5.552 1.51 6c-.403.247-.816.499-1.26.5A.26.26 0 0 0 0 6.75.26.26 0 0 0 .25 7c.376.02.807-.093 1.238-.207.656-.173 1.31-.345 1.766-.043C3.16 6.937 3 7.5 3 8l-.002 1.51c-.206.204-.379.123-.555.04C2.303 9.485 2.16 9.42 2 9.5l-1 2.95c0 .25.393.302.5.05l.75-1.756C2.998 10.744 4.5 10 5 9l4 1 2.5 2.5c.197.197.62-.138.46-.385L10 9l2-2.5c.248.5.495.5.986.5H13l.6.75c.388.485 1.22-.007.9-.5L12.834 4.79 13 4.5c.062-.187-.363-.576-.5-.5l-2 1.5L8.89 3.187A.5.5 0 0 0 8.5 3zM9 5.25 9.5 6 6.777 7.916a.5.5 0 1 1-.554-.832z"/></svg>