<svg height="15" width="15" xmlns="http://www.w3.org/2000/svg"><path d="M10.064 11.216c.47-.513.936-1.022 1.594-1.242a2 2 0 0 1 1.867.28c.724.532 1.39-.22.591-.806a3.02 3.02 0 0 0-2.774-.423c-.72.24-1.213.767-1.705 1.294-.4.427-.8.855-1.322 1.129-.62.324-1.065-.027-1.065-.636V10.8C7.25 10.002 6.842 9.5 6 9.5c-.49 0-.992.258-1.5.5a16.2 16.2 0 0 0-3.317 2.113.505.505 0 0 0-.067.707c.25.3.58.162.83-.038.413-.333 1.78-1.391 2.933-1.94C5.356 10.615 5.741 10.5 6 10.5c.25 0 .25.102.25.34-.002 1.326 1.29 2.142 2.529 1.494.504-.265.896-.692 1.285-1.118M2.5 9C4 8 5.755 7 7.5 7c.75 0 .75.375.75.75s0 .75.75.75c2.527 0 5.363-3.214 5.5-5.5L12 4 9.658 3.026c-.612-.204-.928.744-.316.948L10.5 4.5 9 5 5 3.75C4.764 3.671 4.611 3.777 4.5 4L3 7 1 8zM5 2a1 1 0 1 1 2 0A1 1 0 0 1 5 2"/></svg>