<svg xmlns="http://www.w3.org/2000/svg" version="1.1" width="15" height="15"><path d="M3 1A1 1 0 0 0 2 2v8a1 1 0 0 0 1 1h9a1 1 0 0 0 1-1V2A1 1 0 0 0 12 1zm2.75.5h3.51a.25.25 0 1 1 0 .5H5.75a.25.25 0 1 1 0-.5M3.5 3H7v4H3.5A.5.5 0 0 1 3 6.5v-3A.5.5 0 0 1 3.5 3M8 3h3.5a.5.5 0 0 1 .5.5v3a.5.5 0 0 1-.5.5H8zM5 8a1 1 0 1 1 0 2A1 1 0 0 1 5 8m5 0a1 1 0 1 1 0 2 1 1 0 0 1 0-2m.445 3.994a.504.504 0 0 0-.425.676l.17.33H4.81l.13-.27a.5.5 0 0 0-.91-.41l-1 2A.5.5 0 0 0 3 14.5a.5.5 0 0 0 .5.5.49.49 0 0 0 .43-.26v-.05H4L4.31 14h6.38l.31.69v.05a.49.49 0 0 0 .43.26.5.5 0 0 0 .5-.5.5.5 0 0 0 0-.24l-1-2a.5.5 0 0 0-.485-.266"/></svg>