<svg xmlns="http://www.w3.org/2000/svg" width="15" height="15"><path d="M2.456 8.613c-.338.598-.955 1.69.137 2.418a3.1 3.1 0 0 0 1.131.462c.307.045.323.518-.038.507C3.3 11.98 1.426 11.807 1.125 10.4c-.156-.82.02-1.557.504-2.355l.697-1.233L1.02 6.069 4.5 4v4L3.194 7.306zM6.7 2.034c1.155-.628 1.823.43 2.191 1.007l.806 1.263L8.43 5.112 12 6.986 11.803 2.96l-1.264.807L9.78 2.578C9.257 1.832 8.875 1.281 7.944 1.033 6.307.72 5.301 2.619 5.311 2.607c-.164.287.216.54.451.21A3.1 3.1 0 0 1 6.7 2.034m6.594 6.187c-.088-.19-.549-.141-.419.267.131.39.185.8.157 1.21C12.939 11.01 11.684 11 11 11H9.5V9.5l-3.5 2 3.488 2.025L9.493 12H11c.89.015 1.6-.176 2.2-.713 1.2-1.061.094-3.066.094-3.066"/></svg>