<svg version="1.1" xmlns="http://www.w3.org/2000/svg" width="15" height="15"><path d="M5.5 3A.5.5 0 0 0 5 3.5H2.75A2.744 2.744 0 0 0 .943 8.313 2 2 0 0 0 0 10c0 1.1.9 2 2 2h8c1.1 0 2-.9 2-2a1.97 1.97 0 0 0-.48-1.277l2.177.963a.75.75 0 1 0 .606-1.372l-1.81-.802 1.63-.272a.75.75 0 1 0-.246-1.48l-2.13.355C11.258 4.952 10.038 3.784 8 3.55V3.5A.5.5 0 0 0 7.5 3zM6 4h1v7H6V4m3.5 4a.494.494 0 0 1 .49.45l.076-.134a.5.5 0 1 1 .866.5l-.258.448A.99.99 0 0 1 11 10c0 .563-.437 1-1 1H8V9h1v-.5A.5.5 0 0 1 9.5 8m-7.06.07a.5.5 0 0 1 .494.246l.2.348A.5.5 0 0 1 3.5 8.5c.277 0 .5.223.5.5h1v2H2c-.563 0-1-.437-1-1S1.437 9 2 9h.174l-.106-.184A.497.497 0 0 1 2.44 8.07"/></svg>