<svg xmlns="http://www.w3.org/2000/svg" width="15" height="15"><path d="M11.433 10.089h2.49v.75h-2.07a4.8 4.8 0 0 1 1.622 2.301l-.71.242a4 4 0 0 0-1.74-2.197A1.78 1.78 0 0 1 9.99 11.64l-1.553 1.346H6.52L4.984 11.623a2.02 2.02 0 0 1-1.093-.44 4 4 0 0 0-1.743 2.199l-.71-.242A4.8 4.8 0 0 1 3.06 10.839H.99v-.75h2.494l.863-.677L3.333 7.757a2 2 0 0 1-.27.029A2.02 2.02 0 0 1 1.012 5.706c0-2.08 1.979-4.16 1.979-4.16l-.737 4.447L3.98 5.992 4.99 2.985v2.996a2.1 2.1 0 0 1-.699 1.412l.854 1.394L5.23 8.72a3.87 3.87 0 0 1 4.478 0l.06.047.87-1.415A2.12 2.12 0 0 1 9.995 5.981V2.985l.983 3.007 1.755.001-.737-4.447s1.982 2.08 1.982 4.16a2.02 2.02 0 0 1-2.056 2.08 2.3 2.3 0 0 1-.344-.037l-1.01 1.646.84.659c.013.01.014.024.025.035"/></svg>