<svg xmlns="http://www.w3.org/2000/svg" width="15" height="15"><path d="M12.017 12.5H14.5L12 15v-2.483a1.62 1.62 0 0 1-1.137.48 1.6 1.6 0 0 1-.993-.345 6.784 6.784 0 0 1 .008-10.31A1.62 1.62 0 0 1 12 2.462V0l2.5 2.5h-2.464a2 2 0 0 1 .123.129 1.624 1.624 0 0 1-.288 2.28A3.52 3.52 0 0 0 10.75 7.494a3.56 3.56 0 0 0 1.147 2.616 1.635 1.635 0 0 1 .232 2.279c-.034.041-.075.072-.112.11M2.504 0l-1 5.5c-.146.805 1.781 1.181 1.75 2l-.25 6.5a.963.963 0 0 0 1 1 .963.963 0 0 0 1-1l-.25-6.5c-.031-.818 1.733-1.18 1.75-2l-1-5.5h-.5l.25 4-.75.5L4.254 0h-.5l-.25 4.5L2.754 4l.25-4Z"/></svg>