<svg width="15" height="15" xmlns="http://www.w3.org/2000/svg"><path d="M5.542 3.647 3.106 3l.443-1.63a.505.505 0 0 1 .618-.352l1.46.392a.5.5 0 0 1 .355.613zm-4.52 7.356a.5.5 0 0 1-.005-.276L2.836 4.001l2.435.647-1.819 6.726a.5.5 0 0 1-.143.237l-1.457 1.347a.152.152 0 0 1-.247-.066zM10 5C7.75 5 7 4.25 7 2c2.25 0 3 .75 3 3m-1.4 7.984c-1.37.21-3.126-1.706-3.52-3.8L5.969 5.9a2.15 2.15 0 0 1 1.419-.533 2.7 2.7 0 0 1 1.564.489.96.96 0 0 0 1.089-.01 2.44 2.44 0 0 1 1.46-.479c.77 0 1.643.489 2.05 1.201 1.536 2.696-1.194 6.709-3.144 6.417a.9.9 0 0 1-.255-.093 1.43 1.43 0 0 0-1.302 0 .9.9 0 0 1-.25.092"/></svg>
