<svg xmlns="http://www.w3.org/2000/svg" width="15" height="15"><path d="M4.908 12a1.5 1.5 0 1 1-2.816 0Zm8.65-6C13.539 6 13 6 13 6V3h.351a.28.28 0 0 0 .223-.148l.268-.536a.3.3 0 0 0 .009-.066A.25.25 0 0 0 13.6 2H13v-.3a.215.215 0 0 0-.2-.2H9.25a.25.25 0 0 0 0 .5H12v4.6L7.6 10H6V7.5A.5.5 0 0 0 5.5 7H5V5h1.75a.25.25 0 0 0 0-.5L2.266 4.034c-.006 0-.01-.007-.016-.007A.25.25 0 0 0 2 4.277v.473A.25.25 0 0 0 2.25 5H3v2h-.5A1.54 1.54 0 0 0 1 8.5v2a.47.47 0 0 0 .442.5c.019 0 6.058 0 6.058 0L10 10h3.5a.47.47 0 0 0 .5-.442C14 9.539 14 6.5 14 6.5A.47.47 0 0 0 13.558 6M12.5 11a1.5 1.5 0 1 0 1.5 1.5A1.54 1.54 0 0 0 12.5 11"/></svg>