<svg width="15" height="15" xmlns="http://www.w3.org/2000/svg"><path d="M8 5s2-.1 2-1.6C10 2.466 9.178 2.209 8.476 1.99 7.955 1.825 7.5 1.683 7.5 1.3 7.5.387 8 0 8 0S7 .532 7 1.5c0 .71.54.962 1.06 1.203C8.538 2.926 9 3.14 9 3.7 9 4.7 8 5 8 5m3.837 1.674C11.376 8.621 10.785 11.107 9 12v2H6v-2C4.215 11.107 3.625 8.62 3.163 6.674A59 59 0 0 0 3 6h9a60 60 0 0 0-.163.674M7 4C7 5 5.5 5 5.5 5s.793-.1.793-.7c0-.275-.277-.445-.574-.628C5.373 3.459 5 3.23 5 2.8 5 1.966 6 1.5 6 1.5s-.5.273-.5 1c0 .388.353.541.717.698C6.603 3.365 7 3.537 7 4"/></svg>