<svg xmlns="http://www.w3.org/2000/svg" width="15" height="15"><path d="M4.51 8.88a.51.51 0 0 0 0 .72l.72.72L3.07 12.5l-.37-.37A2.24 2.24 0 0 1 2 10.69V9.24a2.24 2.24 0 0 1 .7-1.45L7.77 2.72A2.24 2.24 0 0 1 9.22 2h1.45a2.24 2.24 0 0 1 1.45.72l.36.36-2.17 2.18-.73-.73a.51.51 0 0 0-.72 0Zm-.38 4.72a1 1 0 0 0 1.414.036q.018-.017.036-.036l.72-.72a1 1 0 0 0 .036-1.414Q6.32 11.448 6.3 11.43Zm7.25-7.28a1 1 0 0 0 1.414.036c.012-.011.756-.756.756-.756a1 1 0 0 0 .036-1.414Q13.57 4.168 13.55 4.15Z"/></svg>