<svg xmlns="http://www.w3.org/2000/svg" width="15" height="15"><path d="M13.128 1.87C11.587.33 8.575 1.094 6.848 2.92a6.83 6.83 0 0 0-1.88 4.4 5.7 5.7 0 0 1-.57 2.72.68.68 0 0 0-.67.17l-2.49 2.5a.694.694 0 0 0 0 .98l.07.07a.705.705 0 0 0 .98 0l2.5-2.49a.68.68 0 0 0 .18-.66 8.6 8.6 0 0 1 3.12-.58 6.55 6.55 0 0 0 3.99-1.87c2.03-2.03 2.501-4.84 1.05-6.29m-2.2-.04a2.3 2.3 0 0 1 1.64.61 2.55 2.55 0 0 1 .5 2.44l-2.95-2.96a4 4 0 0 1 .81-.09m-4.57 6.81a2.65 2.65 0 0 1-.48-2.55l3.04 3.04a2.85 2.85 0 0 1-2.56-.49m2.88.39L5.978 5.76a5.2 5.2 0 0 1 .49-1.08l3.85 3.85a5.5 5.5 0 0 1-1.08.5m1.34-.66L6.638 4.42a5.2 5.2 0 0 1 .74-.9l4.1 4.1a5.7 5.7 0 0 1-.9.75m1.11-.96-4.1-4.1a5.6 5.6 0 0 1 .84-.65l3.92 3.92a5.7 5.7 0 0 1-.66.83m.82-1.09L8.698 2.5a4.2 4.2 0 0 1 1.09-.48l3.2 3.2a5.6 5.6 0 0 1-.48 1.1"/></svg>