<svg height="15" width="15" xmlns="http://www.w3.org/2000/svg"><path d="M10.651 6.121a.25.25 0 0 0-.314 0L8.092 7.929A.25.25 0 0 0 8 8.122v4.625A.253.253 0 0 0 8.253 13h1.494A.253.253 0 0 0 10 12.747V11h1v1.747a.253.253 0 0 0 .253.253h1.494A.253.253 0 0 0 13 12.747V8.12a.25.25 0 0 0-.094-.2zM10 10H9V9h1zm2 0h-1V9h1zM5.71.815a.252.252 0 0 0-.42 0L2.042 4.936A.25.25 0 0 0 2 5.076v7.671A.25.25 0 0 0 2.251 13h2.5A.25.25 0 0 0 5 12.748V11h1v1.748A.25.25 0 0 0 6.252 13H7V7a.5.5 0 0 1 .188-.391L9 5C9 4.95 5.71.815 5.71.815M4 9H3V8h1zM4 6H3V5h1zm2 3H5V8h1zM6 6H5V5h1z"/></svg>