<svg width="15" height="15" xmlns="http://www.w3.org/2000/svg"><path d="M6.176 1.176a.25.25 0 0 0-.352 0l-4.4 4.4A.25.25 0 0 0 1.6 6H3v6.751A.25.25 0 0 0 3.249 13h3.5A.25.25 0 0 0 7 12.753v-7.43a.25.25 0 0 1 .073-.176L8.5 3.5zM6 11H5v-1h1zM6 9H5V8h1zM6 6v1H5V6zm6.75-3h-.5A.25.25 0 0 0 12 3.25V5L10.676 3.176a.25.25 0 0 0-.352 0L8.056 5.932A.25.25 0 0 0 8 6.088v6.66A.25.25 0 0 0 8.246 13h1.5A.253.253 0 0 0 10 12.748V11h1v1.747a.253.253 0 0 0 .253.253h1.5A.25.25 0 0 0 13 12.751V3.25A.25.25 0 0 0 12.75 3M10 8H9V7h1zm2 0h-1V7h1zm-2 2H9V9h1zm2 0h-1V9h1z"/></svg>