<svg version="1.1" xmlns="http://www.w3.org/2000/svg" width="15" height="15"><path d="M8.484 1a.5.5 0 0 0-.375.188L6.45 3.262 4.844 1.739C4.408 1.337 3.76 1.892 4.09 2.385l1.666 2.4a.5.5 0 0 0 .803.026C6.725 4.6 7 4.133 7.5 4.133s.793.49.941.678a.5.5 0 0 0 .713.072l1.668-1.4c.441-.375 0-1.074-.527-.838L9 3.227V1.5A.5.5 0 0 0 8.484 1M5 6l-2.924 5.924C2 12.001 2 12.155 2 12.309c0 .538.384.691.691.691h9.618c.384 0 .691-.153.691-.691 0-.154 0-.231-.076-.385L10 6C9.5 6 9 6.5 9 7v.5a.499.499 0 1 1-1 0V7A.5.5 0 1 0 7 7v2A.499.499 0 1 1 6 9V7C6 6.5 5.5 6 5 6"/></svg>