<svg xmlns="http://www.w3.org/2000/svg" width="15" height="15"><path d="M13.91 7.94a6 6 0 0 1-.13.94A8.8 8.8 0 0 0 11.61 7.39a9 9 0 0 0-1.4-.56A8.6 8.6 0 0 0 8.39 6.48a.2.2 0 0 0-.08-.01A7.3 7.3 0 0 1 7.5 4.59c-.01-.01-.01-.01 0-.02a7.8 7.8 0 0 1 1.52.15 7 7 0 0 1 1.56.5 7 7 0 0 1 1.4.78 7.4 7.4 0 0 1 1.93 1.94m-1.87-5A6.2 6.2 0 0 0 10.19 1.67a4.3 4.3 0 0 0-.98-.36A5.6 5.6 0 0 0 7.66 1.08a1.3 1.3 0 0 0-.32 0A7.4 7.4 0 0 0 7.21 2.5c0 .2.01.39.02.58a2 2 0 0 1 .26-.01 3 3 0 0 1 .28.01 8.3 8.3 0 0 1 1.49.16 9 9 0 0 1 1.35.37 9 9 0 0 1 1.53.7 10 10 0 0 1 1.39.97A6.5 6.5 0 0 0 12.04 2.94M4.01 8.76A9.4 9.4 0 0 1 3.39 7.39 9 9 0 0 1 3.02 5.98 9 9 0 0 1 2.86 4.31v-.03a8.5 8.5 0 0 1 .1-1.34A6.3 6.3 0 0 0 1.47 5.3a6.2 6.2 0 0 0-.4 2.2c0 .15.01.3.02.44a6 6 0 0 0 .13.94 5.7 5.7 0 0 0 .41 1.23c.22-.05.44-.11.65-.17a8 8 0 0 0 1.9-.88c-.06-.1-.12-.2-.17-.3m2.6-2.28A9 9 0 0 1 5.98 4.72 9 9 0 0 1 5.74 3.24 9 9 0 0 1 5.71 2.5a9 9 0 0 1 .08-1.19 4.3 4.3 0 0 0-.98.36 7.7 7.7 0 0 0-.42 1.94c-.02.22-.03.44-.03.67a7 7 0 0 0 .06.93 7.4 7.4 0 0 0 .37 1.63 6.5 6.5 0 0 0 .59 1.28A8 8 0 0 0 6.65 6.55a.3.3 0 0 1-.04-.07m6.09 3.45s0-.01-.01 0a7 7 0 0 0-1.7-1.16c-.06.1-.11.19-.17.29a9 9 0 0 1-.88 1.22 9 9 0 0 1-1.06 1.07 10.4 10.4 0 0 1-1.38.98 9 9 0 0 1-2.64 1.02 6.3 6.3 0 0 0 5.28 0 5.97 5.97 0 0 0 2.42-1.89 4.8 4.8 0 0 0 .65-1.03 6 6 0 0 0-.51-.5m-5.17-2c-.01.01-.02.03-.03.04a9.3 9.3 0 0 1-1.25 1.4 9.6 9.6 0 0 1-1.19.91 9.3 9.3 0 0 1-2.62 1.18 6 6 0 0 0 .53.61 7.7 7.7 0 0 0 3.15-.72 7.4 7.4 0 0 0 1.38-.82A7.6 7.6 0 0 0 8.75 9.37a7.7 7.7 0 0 0 .82-1.15A7.3 7.3 0 0 0 7.53 7.93"/></svg>