<svg version="1.1" xmlns="http://www.w3.org/2000/svg" width="15" height="15"><path d="M2 10.2 4 9l2.5 1.5 1.466-.879a3.5 3.5 0 0 1-.843-.567L8.536 7.64c.231.196.52.32.839.347v1.237l.25.15V7.987a1.5 1.5 0 0 0 .839-.347l1.413 1.414a3.5 3.5 0 0 1-1.453.8L11.5 10.5l.698-.42A4.48 4.48 0 0 0 14 6.5 4.5 4.5 0 0 0 9.5 2 4.47 4.47 0 0 0 6.202 3.459L4.5 2 1 5h1zM12.054 8.877 10.64 7.464a1.5 1.5 0 0 0 .347-.839h2a3.47 3.47 0 0 1-.933 2.252m.933-2.502h-2a1.5 1.5 0 0 0-.346-.839l1.413-1.413a3.48 3.48 0 0 1 .933 2.252M9.625 3.013a3.48 3.48 0 0 1 2.252.933L10.464 5.36a1.5 1.5 0 0 0-.839-.346s0-2 0-2m-.25 0v2a1.5 1.5 0 0 0-.839.346L7.123 3.946a3.48 3.48 0 0 1 2.252-.933m-2.429 1.11L8.36 5.536a1.5 1.5 0 0 0-.347.839h-2a3.48 3.48 0 0 1 .933-2.252m1.067 2.502a1.5 1.5 0 0 0 .347.839L6.946 8.877A3.48 3.48 0 0 1 6.013 6.625zM9.002 10 6.5 11.5 4 10l-2.5 1.5V13L4 11.5 6.5 13l2.502-1.5L11.5 13 14 11.5V10l-2.5 1.5z"/></svg>