<svg version="1.1" xmlns="http://www.w3.org/2000/svg" width="15" height="15"><path d="M12 1.5a1.5 1.5 0 1 1-3 0 1.5 1.5 0 0 1 3 0M2.82 4.87 4.56 3.16l1.85 1.29L5.67 5.7a5.5 5.5 0 0 1 2.71 1.88l.88-1.5A.86.86 0 0 0 8.92 4.91L8.3 4.54 4.79 2.1a.5.5 0 0 0-.64.05l-2 2a.5.5 0 0 0 .67.72m5.31 6.07A4.11 4.11 0 0 1 6.59 14.1 4 4 0 0 1 4.07 15 4.07 4.07 0 0 1 0 10.94 4 4 0 0 1 .91 8.41a4 4 0 0 1 .63-.63 4 4 0 0 1 2.53-.91 4.07 4.07 0 0 1 4.06 4.07M6 12.21A2.29 2.29 0 0 0 2.79 9a1.7 1.7 0 0 0-.63.63 2.29 2.29 0 0 0 3.17 3.17A3.1 3.1 0 0 0 6 12.21m8.2 1-2.49-5A.75.75 0 0 0 11 7.75H8.51a5.5 5.5 0 0 1 .76 1.5h1.26l2.29 4.58a.754.754 0 1 0 1.35-.67z"/></svg>