<svg version="1.1" xmlns="http://www.w3.org/2000/svg" width="15" height="15"><path d="M8.388 3.893S7.682 5 7 5H4.5c-.682 0-1.298.409-1.773.864L.5 8C.231 8.258.007 8.768 0 9c-.016.5 0 1 0 1s1 0 1-1v-.5l1-1h.5l.158.29s-.953 1.824-.953 3.528c0 .682.681.682.681.682h.682s.341 0 0-.34l-.34-.342C2.727 10.636 3.5 9.667 4 9c0 0 .017 1.158 0 2-.008.41.272 1 .682 1h.682s.34 0 0-.34l-.341-.342C4.71 10.75 5.5 8.5 5.5 8.5c1.272 0 1.5.5 3 .5l.364 2.318C8.975 12.028 9.5 12 9.5 12H11c.34 0 .961-.311.34-.774L11 11V9c1.214-.172 2-1 2-2h1c.321 0 1 0 1-.5v-1L13.296 3.818C12.544 3.078 12 2.5 11 2.5c-1.453 0-2.136.569-2.612 1.393"/></svg>